<svg xmlns="http://www.w3.org/2000/svg" viewBox="0 0 512 512" width="512" height="512">
  <defs>
    <linearGradient id="innerTop" x1="256" y1="160" x2="256" y2="255" gradientUnits="userSpaceOnUse">
      <stop offset="0" stop-color="#fff" stop-opacity="0.9"/>
      <stop offset="1" stop-color="#fff" stop-opacity="0.4"/>
    </linearGradient>
    <linearGradient id="innerLeft" x1="174" y1="208" x2="256" y2="350" gradientUnits="userSpaceOnUse">
      <stop offset="0" stop-color="#fff" stop-opacity="0.25"/>
      <stop offset="1" stop-color="#fff" stop-opacity="0.05"/>
    </linearGradient>
    <linearGradient id="innerRight" x1="338" y1="208" x2="256" y2="350" gradientUnits="userSpaceOnUse">
      <stop offset="0" stop-color="#fff" stop-opacity="0.35"/>
      <stop offset="1" stop-color="#fff" stop-opacity="0.1"/>
    </linearGradient>
  </defs>

  <!-- Background rounded rectangle -->
  <rect x="0" y="0" width="512" height="512" rx="122" ry="122" fill="#000"/>

  <!-- Left outer face -->
  <polygon points="104,168 104,343 256,430 256,350 174,303 174,208" fill="#fff" fill-opacity="0.22"/>

  <!-- Right outer face -->
  <polygon points="408,168 408,343 256,430 256,350 338,303 338,208" fill="#fff" fill-opacity="0.31"/>

  <!-- Top face ring -->
  <polygon points="104,168 256,80 408,168 338,208 256,160 174,208" fill="#fff" fill-opacity="0.6"/>

  <!-- Inner top wall -->
  <polygon points="174,208 256,160 338,208 256,255" fill="url(#innerTop)"/>

  <!-- Inner left wall -->
  <polygon points="174,208 256,255 256,350 174,303" fill="url(#innerLeft)"/>

  <!-- Inner right wall -->
  <polygon points="338,208 338,303 256,350 256,255" fill="url(#innerRight)"/>
</svg>
