<svg width="256" height="256" viewBox="0 0 256 256" fill="none" xmlns="http://www.w3.org/2000/svg">
<path d="M127.163 17L229.282 65.0077V182.568L127.163 238L26 182.568V65.0077L127.163 17Z" stroke="#6893F3" stroke-width="5.12" stroke-linejoin="round"/>
<path d="M45.4693 88.8363L81.2382 108.26L81.9919 148.434L46.223 129.011L45.4693 88.8363Z" fill="#A4C2FA"/>
<path d="M87.9878 111.004L123.757 130.427L124.51 170.602L88.7415 151.178L87.9878 111.004Z" fill="#A4C2FA"/>
<path d="M46.3486 135.707L82.1175 155.13L82.8712 195.305L47.1023 175.882L46.3486 135.707Z" fill="#A4C2FA"/>
<path d="M88.8671 157.874L124.636 177.298L125.39 217.472L89.6208 198.049L88.8671 157.874Z" fill="#A4C2FA"/>
<path d="M205.039 75.1626L205.93 127.045L170.258 107.623L169.696 94.2717L159.355 89.444L158.678 49.92L205.039 75.1626Z" fill="#A4C2FA"/>
<path d="M166.134 96.1034L168.11 201.399L128.124 182.335L128.011 176.289L126.515 175.476L126.513 175.348L93.7993 157.584L93.7348 154.133L128.373 172.443L127.559 129.08L92.9213 110.769L91.9829 60.7499L166.134 96.1034Z" fill="#4B77F2"/>
</svg>
