<svg width="218" height="237" viewBox="0 0 218 237" fill="none" xmlns="http://www.w3.org/2000/svg">
<path d="M108.3 2.56L215.04 52.74V175.62L108.3 233.56L2.56 175.62V52.74L108.3 2.56Z" stroke="#6893F3" stroke-width="5.12" stroke-linejoin="round"/>
<path d="M22.9103 77.6468L60.2976 97.9491L61.0854 139.942L23.698 119.639L22.9103 77.6468Z" fill="#A4C2FA"/>
<path d="M67.3527 100.817L104.74 121.12L105.528 163.112L68.1405 142.81L67.3527 100.817Z" fill="#A4C2FA"/>
<path d="M23.8293 126.638L61.2167 146.94L62.0045 188.933L24.6171 168.631L23.8293 126.638Z" fill="#A4C2FA"/>
<path d="M68.2718 149.809L105.659 170.111L106.447 212.104L69.0596 191.801L68.2718 149.809Z" fill="#A4C2FA"/>
<path d="M189.7 63.3535L190.632 117.585L153.345 97.2839L152.758 83.3285L141.95 78.282L141.241 36.9696L189.7 63.3535Z" fill="#A4C2FA"/>
<path d="M149.035 85.2426L151.1 195.303L109.306 175.376L109.188 169.056L107.623 168.206L107.621 168.074L73.427 149.505L73.3596 145.898L109.565 165.037L108.714 119.711L72.509 100.573L71.5285 48.2895L149.035 85.2426Z" fill="#4B77F2"/>
</svg>
